<svg width="1440" height="533" viewBox="0 0 1440 533" fill="none" xmlns="http://www.w3.org/2000/svg">
<path d="M1502.19 600.387L1505.6 623.418C1390.45 684.834 1317.09 656.685 1241.17 585.886C1196.82 544.942 1191.7 535.559 1183.17 533.853C1048.4 519.352 960.536 425.522 960.536 266.864C960.536 112.471 1075.69 -6.94897 1226.67 -6.94897C1394.71 -6.94897 1492.81 94.558 1492.81 266.864C1492.81 385.431 1425.42 482.673 1322.21 521.058C1367.42 560.296 1404.1 598.681 1502.19 600.387ZM1225.82 519.352C1329.89 519.352 1365.71 398.226 1365.71 267.717C1365.71 135.502 1307.71 12.67 1226.67 12.67C1144.78 12.67 1086.78 135.502 1086.78 267.717C1086.78 398.226 1126.02 519.352 1225.82 519.352Z" fill="#D9D9D9"/>
<path d="M642.294 -17.1851L837.631 422.963C867.486 489.497 880.281 511.675 936.579 521.911V533H627.793V521.911C709.681 509.969 737.83 482.673 714.799 429.787L685.797 363.253H502.402L479.371 418.698C448.663 490.35 464.87 510.822 565.524 521.911V533H351.421V521.911C412.837 513.381 428.191 486.085 456.34 418.698L639.735 -17.1851H642.294ZM591.967 147.444L510.079 344.487H677.267L603.056 171.328L591.967 147.444Z" fill="#D9D9D9"/>
<path d="M189.078 533H-54.0273V522.764L-32.7023 520.205C0.564659 516.793 3.12366 491.203 3.12366 460.495V68.9679C3.12366 38.2599 -0.288342 10.1109 -32.7023 10.1109H-54.0273V-3.53711H363.09L370.767 137.208H361.384C349.442 102.235 338.353 82.6159 327.264 68.9679C303.38 38.2599 280.349 28.8769 252.2 28.8769H121.691V250.657H214.668C243.67 250.657 268.407 246.392 271.819 213.125L274.378 190.094H291.438V351.311H274.378L269.26 322.309C264.142 289.042 244.523 276.247 215.521 276.247H122.544V461.348C122.544 487.791 129.368 515.94 166.9 520.205L189.078 522.764V533Z" fill="#D9D9D9"/>
</svg>
