<svg width="25" height="25" viewBox="0 0 25 25" fill="none" xmlns="http://www.w3.org/2000/svg">
<path d="M18.2291 6.77075H18.2396M7.29165 2.08325H17.7083C20.5848 2.08325 22.9166 4.4151 22.9166 7.29159V17.7083C22.9166 20.5847 20.5848 22.9166 17.7083 22.9166H7.29165C4.41516 22.9166 2.08331 20.5847 2.08331 17.7083V7.29159C2.08331 4.4151 4.41516 2.08325 7.29165 2.08325ZM16.6666 11.8437C16.7952 12.7106 16.6471 13.596 16.2435 14.3739C15.8398 15.1518 15.2012 15.7826 14.4183 16.1767C13.6355 16.5707 12.7484 16.7078 11.8831 16.5686C11.0178 16.4294 10.2185 16.0208 9.59877 15.4011C8.97906 14.7814 8.57053 13.9821 8.4313 13.1168C8.29207 12.2515 8.42921 11.3644 8.82324 10.5816C9.21726 9.79872 9.84809 9.16006 10.626 8.75642C11.4039 8.35277 12.2893 8.2047 13.1562 8.33325C14.0405 8.46438 14.8592 8.87644 15.4913 9.50857C16.1235 10.1407 16.5355 10.9594 16.6666 11.8437Z" stroke="#747474" stroke-linecap="round" stroke-linejoin="round"/>
</svg>
