<svg width="25" height="25" viewBox="0 0 25 25" fill="none" xmlns="http://www.w3.org/2000/svg">
<path d="M16.6666 8.33325C18.3242 8.33325 19.914 8.99173 21.0861 10.1638C22.2582 11.3359 22.9166 12.9256 22.9166 14.5833V21.8749H18.75V14.5833C18.75 14.0307 18.5305 13.5008 18.1398 13.1101C17.7491 12.7194 17.2192 12.4999 16.6666 12.4999C16.1141 12.4999 15.5842 12.7194 15.1935 13.1101C14.8028 13.5008 14.5833 14.0307 14.5833 14.5833V21.8749H10.4166V14.5833C10.4166 12.9256 11.0751 11.3359 12.2472 10.1638C13.4193 8.99173 15.009 8.33325 16.6666 8.33325Z" stroke="#747474" stroke-linecap="round" stroke-linejoin="round"/>
<path d="M6.24998 9.37492H2.08331V21.8749H6.24998V9.37492Z" stroke="#747474" stroke-linecap="round" stroke-linejoin="round"/>
<path d="M4.16665 6.24992C5.31724 6.24992 6.24998 5.31718 6.24998 4.16659C6.24998 3.01599 5.31724 2.08325 4.16665 2.08325C3.01605 2.08325 2.08331 3.01599 2.08331 4.16659C2.08331 5.31718 3.01605 6.24992 4.16665 6.24992Z" stroke="#747474" stroke-linecap="round" stroke-linejoin="round"/>
</svg>
