<svg width="103" height="11" viewBox="0 0 103 11" fill="none" xmlns="http://www.w3.org/2000/svg">
<path d="M0.365 10V0.899999H3.914C4.71133 0.899999 5.39167 1.02567 5.955 1.277C6.51833 1.52833 6.95167 1.89233 7.255 2.369C7.55833 2.84567 7.71 3.41333 7.71 4.072C7.71 4.73067 7.55833 5.29833 7.255 5.775C6.95167 6.243 6.51833 6.60267 5.955 6.854C5.39167 7.10533 4.71133 7.231 3.914 7.231H1.08L1.665 6.633V10H0.365ZM6.449 10L4.135 6.698H5.526L7.866 10H6.449ZM1.665 6.763L1.08 6.126H3.875C4.707 6.126 5.33533 5.94833 5.76 5.593C6.19333 5.229 6.41 4.722 6.41 4.072C6.41 3.422 6.19333 2.91933 5.76 2.564C5.33533 2.20867 4.707 2.031 3.875 2.031H1.08L1.665 1.381V6.763ZM12.5273 10.078C11.938 10.078 11.418 9.96967 10.9673 9.753C10.5253 9.53633 10.1786 9.207 9.92731 8.765C9.68465 8.31433 9.56331 7.751 9.56331 7.075V3.11H10.8113V6.932C10.8113 7.608 10.9716 8.115 11.2923 8.453C11.6216 8.791 12.081 8.96 12.6703 8.96C13.1036 8.96 13.4806 8.87333 13.8013 8.7C14.122 8.518 14.369 8.258 14.5423 7.92C14.7156 7.57333 14.8023 7.15733 14.8023 6.672V3.11H16.0503V10H14.8673V8.141L15.0623 8.635C14.837 9.09433 14.499 9.44967 14.0483 9.701C13.5976 9.95233 13.0906 10.078 12.5273 10.078ZM21.4942 10.078C20.7575 10.078 20.1075 9.92633 19.5442 9.623C18.9895 9.31967 18.5562 8.90367 18.2442 8.375C17.9408 7.84633 17.7892 7.23967 17.7892 6.555C17.7892 5.87033 17.9365 5.26367 18.2312 4.735C18.5345 4.20633 18.9462 3.79467 19.4662 3.5C19.9948 3.19667 20.5885 3.045 21.2472 3.045C21.9145 3.045 22.5038 3.19233 23.0152 3.487C23.5265 3.78167 23.9252 4.19767 24.2112 4.735C24.5058 5.26367 24.6532 5.88333 24.6532 6.594C24.6532 6.646 24.6488 6.70667 24.6402 6.776C24.6402 6.84533 24.6358 6.91033 24.6272 6.971H18.7642V6.074H23.9772L23.4702 6.386C23.4788 5.944 23.3878 5.54967 23.1972 5.203C23.0065 4.85633 22.7422 4.58767 22.4042 4.397C22.0748 4.19767 21.6892 4.098 21.2472 4.098C20.8138 4.098 20.4282 4.19767 20.0902 4.397C19.7522 4.58767 19.4878 4.86067 19.2972 5.216C19.1065 5.56267 19.0112 5.96133 19.0112 6.412V6.62C19.0112 7.07933 19.1152 7.491 19.3232 7.855C19.5398 8.21033 19.8388 8.48767 20.2202 8.687C20.6015 8.88633 21.0392 8.986 21.5332 8.986C21.9405 8.986 22.3088 8.91667 22.6382 8.778C22.9762 8.63933 23.2708 8.43133 23.5222 8.154L24.2112 8.96C23.8992 9.324 23.5092 9.60133 23.0412 9.792C22.5818 9.98267 22.0662 10.078 21.4942 10.078ZM28.6813 10L32.8023 0.899999H34.0893L38.2233 10H36.8583L33.1793 1.628H33.6993L30.0203 10H28.6813ZM30.4363 7.725L30.7873 6.685H35.9093L36.2863 7.725H30.4363ZM48.0178 3.045C48.5725 3.045 49.0622 3.15333 49.4868 3.37C49.9115 3.58667 50.2408 3.916 50.4748 4.358C50.7175 4.8 50.8388 5.359 50.8388 6.035V10H49.5908V6.178C49.5908 5.51067 49.4348 5.008 49.1228 4.67C48.8108 4.332 48.3732 4.163 47.8098 4.163C47.3938 4.163 47.0298 4.24967 46.7178 4.423C46.4058 4.59633 46.1632 4.852 45.9898 5.19C45.8252 5.528 45.7428 5.94833 45.7428 6.451V10H44.4948V6.178C44.4948 5.51067 44.3388 5.008 44.0268 4.67C43.7235 4.332 43.2858 4.163 42.7138 4.163C42.3065 4.163 41.9468 4.24967 41.6348 4.423C41.3228 4.59633 41.0802 4.852 40.9068 5.19C40.7335 5.528 40.6468 5.94833 40.6468 6.451V10H39.3988V3.11H40.5948V4.943L40.3998 4.475C40.6165 4.02433 40.9502 3.67333 41.4008 3.422C41.8515 3.17067 42.3758 3.045 42.9738 3.045C43.6325 3.045 44.2002 3.20967 44.6768 3.539C45.1535 3.85967 45.4655 4.34933 45.6128 5.008L45.1058 4.8C45.3138 4.27133 45.6778 3.84667 46.1978 3.526C46.7178 3.20533 47.3245 3.045 48.0178 3.045ZM57.4121 10V8.544L57.3471 8.271V5.788C57.3471 5.25933 57.1911 4.852 56.8791 4.566C56.5758 4.27133 56.1165 4.124 55.5011 4.124C55.0938 4.124 54.6951 4.19333 54.3051 4.332C53.9151 4.462 53.5858 4.63967 53.3171 4.865L52.7971 3.929C53.1525 3.643 53.5771 3.42633 54.0711 3.279C54.5738 3.123 55.0981 3.045 55.6441 3.045C56.5888 3.045 57.3168 3.27467 57.8281 3.734C58.3395 4.19333 58.5951 4.89533 58.5951 5.84V10H57.4121ZM55.1501 10.078C54.6388 10.078 54.1881 9.99133 53.7981 9.818C53.4168 9.64467 53.1221 9.40633 52.9141 9.103C52.7061 8.791 52.6021 8.44 52.6021 8.05C52.6021 7.67733 52.6888 7.33933 52.8621 7.036C53.0441 6.73267 53.3345 6.49 53.7331 6.308C54.1405 6.126 54.6865 6.035 55.3711 6.035H57.5551V6.932H55.4231C54.7991 6.932 54.3788 7.036 54.1621 7.244C53.9455 7.452 53.8371 7.70333 53.8371 7.998C53.8371 8.336 53.9715 8.609 54.2401 8.817C54.5088 9.01633 54.8815 9.116 55.3581 9.116C55.8261 9.116 56.2335 9.012 56.5801 8.804C56.9355 8.596 57.1911 8.29267 57.3471 7.894L57.5941 8.752C57.4295 9.15933 57.1391 9.48433 56.7231 9.727C56.3071 9.961 55.7828 10.078 55.1501 10.078ZM62.8807 10.078C62.3087 10.078 61.7627 10 61.2427 9.844C60.7313 9.688 60.3283 9.49733 60.0337 9.272L60.5537 8.284C60.8483 8.48333 61.2123 8.65233 61.6457 8.791C62.079 8.92967 62.521 8.999 62.9717 8.999C63.5523 8.999 63.9683 8.91667 64.2197 8.752C64.4797 8.58733 64.6097 8.35767 64.6097 8.063C64.6097 7.84633 64.5317 7.67733 64.3757 7.556C64.2197 7.43467 64.0117 7.34367 63.7517 7.283C63.5003 7.22233 63.2187 7.17033 62.9067 7.127C62.5947 7.075 62.2827 7.01433 61.9707 6.945C61.6587 6.867 61.3727 6.763 61.1127 6.633C60.8527 6.49433 60.6447 6.308 60.4887 6.074C60.3327 5.83133 60.2547 5.51067 60.2547 5.112C60.2547 4.696 60.3717 4.332 60.6057 4.02C60.8397 3.708 61.169 3.46967 61.5937 3.305C62.027 3.13167 62.5383 3.045 63.1277 3.045C63.5783 3.045 64.0333 3.10133 64.4927 3.214C64.9607 3.318 65.342 3.46967 65.6367 3.669L65.1037 4.657C64.7917 4.449 64.4667 4.306 64.1287 4.228C63.7907 4.15 63.4527 4.111 63.1147 4.111C62.5687 4.111 62.1613 4.202 61.8927 4.384C61.624 4.55733 61.4897 4.78267 61.4897 5.06C61.4897 5.294 61.5677 5.476 61.7237 5.606C61.8883 5.72733 62.0963 5.82267 62.3477 5.892C62.6077 5.96133 62.8937 6.022 63.2057 6.074C63.5177 6.11733 63.8297 6.178 64.1417 6.256C64.4537 6.32533 64.7353 6.425 64.9867 6.555C65.2467 6.685 65.4547 6.867 65.6107 7.101C65.7753 7.335 65.8577 7.647 65.8577 8.037C65.8577 8.453 65.7363 8.81267 65.4937 9.116C65.251 9.41933 64.9087 9.65767 64.4667 9.831C64.0247 9.99567 63.496 10.078 62.8807 10.078ZM69.3934 10.078C68.8214 10.078 68.2754 10 67.7554 9.844C67.244 9.688 66.841 9.49733 66.5464 9.272L67.0664 8.284C67.361 8.48333 67.725 8.65233 68.1584 8.791C68.5917 8.92967 69.0337 8.999 69.4844 8.999C70.065 8.999 70.481 8.91667 70.7324 8.752C70.9924 8.58733 71.1224 8.35767 71.1224 8.063C71.1224 7.84633 71.0444 7.67733 70.8884 7.556C70.7324 7.43467 70.5244 7.34367 70.2644 7.283C70.013 7.22233 69.7314 7.17033 69.4194 7.127C69.1074 7.075 68.7954 7.01433 68.4834 6.945C68.1714 6.867 67.8854 6.763 67.6254 6.633C67.3654 6.49433 67.1574 6.308 67.0014 6.074C66.8454 5.83133 66.7674 5.51067 66.7674 5.112C66.7674 4.696 66.8844 4.332 67.1184 4.02C67.3524 3.708 67.6817 3.46967 68.1064 3.305C68.5397 3.13167 69.051 3.045 69.6404 3.045C70.091 3.045 70.546 3.10133 71.0054 3.214C71.4734 3.318 71.8547 3.46967 72.1494 3.669L71.6164 4.657C71.3044 4.449 70.9794 4.306 70.6414 4.228C70.3034 4.15 69.9654 4.111 69.6274 4.111C69.0814 4.111 68.674 4.202 68.4054 4.384C68.1367 4.55733 68.0024 4.78267 68.0024 5.06C68.0024 5.294 68.0804 5.476 68.2364 5.606C68.401 5.72733 68.609 5.82267 68.8604 5.892C69.1204 5.96133 69.4064 6.022 69.7184 6.074C70.0304 6.11733 70.3424 6.178 70.6544 6.256C70.9664 6.32533 71.248 6.425 71.4994 6.555C71.7594 6.685 71.9674 6.867 72.1234 7.101C72.288 7.335 72.3704 7.647 72.3704 8.037C72.3704 8.453 72.249 8.81267 72.0064 9.116C71.7637 9.41933 71.4214 9.65767 70.9794 9.831C70.5374 9.99567 70.0087 10.078 69.3934 10.078ZM77.7203 10.078C77.4776 10.078 77.2696 9.99567 77.0963 9.831C76.9229 9.65767 76.8363 9.441 76.8363 9.181C76.8363 8.921 76.9229 8.70867 77.0963 8.544C77.2696 8.37933 77.4776 8.297 77.7203 8.297C77.9543 8.297 78.1536 8.37933 78.3183 8.544C78.4916 8.70867 78.5783 8.921 78.5783 9.181C78.5783 9.441 78.4916 9.65767 78.3183 9.831C78.1536 9.99567 77.9543 10.078 77.7203 10.078ZM85.2098 5.203H89.9028V6.321H85.2098V5.203ZM85.3398 10H84.0398V0.899999H90.4618V2.031H85.3398V10ZM93.9588 10.078C93.3868 10.078 92.8408 10 92.3208 9.844C91.8095 9.688 91.4065 9.49733 91.1118 9.272L91.6318 8.284C91.9265 8.48333 92.2905 8.65233 92.7238 8.791C93.1571 8.92967 93.5991 8.999 94.0498 8.999C94.6305 8.999 95.0465 8.91667 95.2978 8.752C95.5578 8.58733 95.6878 8.35767 95.6878 8.063C95.6878 7.84633 95.6098 7.67733 95.4538 7.556C95.2978 7.43467 95.0898 7.34367 94.8298 7.283C94.5785 7.22233 94.2968 7.17033 93.9848 7.127C93.6728 7.075 93.3608 7.01433 93.0488 6.945C92.7368 6.867 92.4508 6.763 92.1908 6.633C91.9308 6.49433 91.7228 6.308 91.5668 6.074C91.4108 5.83133 91.3328 5.51067 91.3328 5.112C91.3328 4.696 91.4498 4.332 91.6838 4.02C91.9178 3.708 92.2471 3.46967 92.6718 3.305C93.1051 3.13167 93.6165 3.045 94.2058 3.045C94.6565 3.045 95.1115 3.10133 95.5708 3.214C96.0388 3.318 96.4201 3.46967 96.7148 3.669L96.1818 4.657C95.8698 4.449 95.5448 4.306 95.2068 4.228C94.8688 4.15 94.5308 4.111 94.1928 4.111C93.6468 4.111 93.2395 4.202 92.9708 4.384C92.7021 4.55733 92.5678 4.78267 92.5678 5.06C92.5678 5.294 92.6458 5.476 92.8018 5.606C92.9665 5.72733 93.1745 5.82267 93.4258 5.892C93.6858 5.96133 93.9718 6.022 94.2838 6.074C94.5958 6.11733 94.9078 6.178 95.2198 6.256C95.5318 6.32533 95.8135 6.425 96.0648 6.555C96.3248 6.685 96.5328 6.867 96.6888 7.101C96.8535 7.335 96.9358 7.647 96.9358 8.037C96.9358 8.453 96.8145 8.81267 96.5718 9.116C96.3291 9.41933 95.9868 9.65767 95.5448 9.831C95.1028 9.99567 94.5741 10.078 93.9588 10.078ZM100.862 10.078C100.168 10.078 99.6308 9.89167 99.2495 9.519C98.8682 9.14633 98.6775 8.61333 98.6775 7.92V1.602H99.9255V7.868C99.9255 8.24067 100.017 8.52667 100.199 8.726C100.389 8.92533 100.658 9.025 101.005 9.025C101.395 9.025 101.72 8.91667 101.98 8.7L102.37 9.597C102.179 9.76167 101.949 9.883 101.681 9.961C101.421 10.039 101.148 10.078 100.862 10.078ZM97.5075 4.137V3.11H101.902V4.137H97.5075Z" fill="white"/>
</svg>
