<svg width="17" height="18" viewBox="0 0 17 18" fill="none" xmlns="http://www.w3.org/2000/svg">
	<path d="M15.3503 12.3105V14.33C15.3511 14.5174 15.3127 14.703 15.2376 14.8748C15.1624 15.0466 15.0523 15.2007 14.9141 15.3275C14.776 15.4542 14.6129 15.5507 14.4353 15.6108C14.2577 15.6708 14.0695 15.6931 13.8828 15.6763C11.8114 15.4512 9.82173 14.7434 8.07356 13.6097C6.44712 12.5762 5.06818 11.1973 4.03468 9.57081C2.89704 7.81471 2.18907 5.81532 1.96811 3.73462C1.95129 3.54847 1.97341 3.36086 2.03307 3.18373C2.09273 3.0066 2.18861 2.84383 2.31462 2.70579C2.44063 2.56775 2.59401 2.45746 2.76498 2.38194C2.93595 2.30642 3.12077 2.26733 3.30768 2.26716H5.32712C5.6538 2.26394 5.97051 2.37962 6.21821 2.59264C6.46591 2.80566 6.62769 3.10149 6.67342 3.42497C6.75865 4.07124 6.91673 4.70579 7.14462 5.31652C7.23519 5.55745 7.25479 5.8193 7.2011 6.07103C7.14741 6.32277 7.02269 6.55384 6.8417 6.73686L5.9868 7.59176C6.94507 9.27701 8.34044 10.6724 10.0257 11.6306L10.8806 10.7757C11.0636 10.5948 11.2947 10.47 11.5464 10.4163C11.7981 10.3627 12.06 10.3823 12.3009 10.4728C12.9117 10.7007 13.5462 10.8588 14.1925 10.944C14.5195 10.9902 14.8181 11.1549 15.0316 11.4068C15.2451 11.6588 15.3585 11.9804 15.3503 12.3105Z" stroke="#747474" stroke-width="1.00972" stroke-linecap="round" stroke-linejoin="round" />
</svg>
