<svg width="125" height="75" viewBox="0 0 125 75" fill="none" xmlns="http://www.w3.org/2000/svg">
	<g clip-path="url(#clip0_15_843)">
		<rect x="12.3562" width="117" height="43" rx="21.5" transform="rotate(16.6996 12.3562 0)" fill="#E57D1F" />
		<path d="M25.0472 33.5622L30.7368 20.6527L32.8823 21.2963L27.2119 34.2116L25.0472 33.5622ZM18.8788 28.3708L19.5053 26.2827L31.8804 29.9953L31.2539 32.0834L18.8788 28.3708ZM20.0857 32.0737L25.7752 19.1642L27.9208 19.8078L22.2312 32.7174L20.0857 32.0737ZM21.0876 23.3748L21.714 21.2867L34.07 24.9936L33.4627 27.0874L21.0876 23.3748ZM39.0818 38.0232C38.0473 37.7129 37.1329 37.2576 36.3386 36.6574C35.5608 36.0482 34.9401 35.333 34.4766 34.5118C34.013 33.6906 33.7224 32.8031 33.6049 31.8491C33.5002 30.8989 33.5992 29.9194 33.9019 28.9104C34.2046 27.9015 34.6611 27.0293 35.2716 26.2937C35.8948 25.5619 36.626 24.9808 37.465 24.5504C38.3169 24.1239 39.2332 23.8768 40.214 23.8091C41.1986 23.7286 42.2146 23.8455 43.2618 24.1597C44.424 24.5083 45.4099 25.0268 46.2196 25.7152C47.0458 26.3946 47.6614 27.2196 48.0662 28.1902L45.5222 29.4316C45.2196 28.77 44.8256 28.2273 44.3403 27.8033C43.8588 27.3665 43.286 27.0485 42.622 26.8493C41.9962 26.6615 41.3908 26.5913 40.8059 26.6385C40.221 26.6858 39.6795 26.8435 39.1814 27.1117C38.6834 27.3799 38.2472 27.7432 37.873 28.2017C37.5116 28.664 37.2351 29.2144 37.0436 29.853C36.852 30.4915 36.7798 31.1032 36.8271 31.6882C36.8871 32.2769 37.0512 32.8203 37.3194 33.3184C37.5876 33.8165 37.9528 34.2462 38.4151 34.6076C38.8774 34.969 39.4215 35.2436 40.0473 35.4314C40.7114 35.6306 41.3627 35.6868 42.0012 35.6C42.6436 35.5003 43.2751 35.2513 43.8958 34.8529L45.3364 37.2896C44.4641 37.877 43.4941 38.2333 42.4265 38.3585C41.3716 38.4875 40.2567 38.3757 39.0818 38.0232ZM50.8543 41.4715C49.756 41.142 48.8479 40.6191 48.1302 39.9026C47.4253 39.19 46.9425 38.3631 46.682 37.4218C46.4381 36.4717 46.4694 35.4857 46.7759 34.4641C47.0862 33.4296 47.6028 32.5893 48.3257 31.9431C49.0651 31.2879 49.9233 30.8633 50.9003 30.6692C51.8939 30.4661 52.9398 30.5293 54.0381 30.8588C55.1237 31.1845 56.0253 31.7056 56.743 32.422C57.4646 33.1257 57.9492 33.9463 58.197 34.8836C58.4448 35.821 58.4115 36.8134 58.0974 37.8606C57.7909 38.8823 57.2743 39.7226 56.5476 40.3816C55.8247 41.0278 54.9665 41.4524 53.9729 41.6555C52.9794 41.8585 51.9398 41.7972 50.8543 41.4715ZM51.5899 39.0195C52.088 39.1689 52.5694 39.1881 53.0343 39.077C53.4992 38.9659 53.9097 38.7341 54.2661 38.3816C54.6262 38.0164 54.8944 37.54 55.0706 36.9525C55.2507 36.3523 55.289 35.807 55.1856 35.3166C55.0821 34.8262 54.867 34.4066 54.54 34.058C54.2131 33.7093 53.8006 33.4603 53.3025 33.3109C52.8044 33.1614 52.323 33.1423 51.8581 33.2534C51.3932 33.3645 50.9763 33.5944 50.6072 33.943C50.2509 34.2955 49.9827 34.7719 49.8026 35.3721C49.6264 35.9596 49.588 36.5049 49.6877 37.0081C49.8039 37.5023 50.0254 37.9237 50.3524 38.2724C50.6793 38.621 51.0918 38.8701 51.5899 39.0195ZM62.7078 45.0277C61.7372 44.7365 60.9275 44.2569 60.2788 43.589C59.6338 42.9083 59.2003 42.1031 58.978 41.1734C58.7686 40.2475 58.8248 39.2481 59.1466 38.1754C59.4723 37.0898 59.9774 36.2182 60.6619 35.5605C61.3592 34.9066 62.1625 34.4794 63.0718 34.2789C63.9811 34.0784 64.9211 34.1238 65.8917 34.415C66.7601 34.6755 67.4625 35.095 67.9989 35.6736C68.5353 36.2521 68.8654 36.9845 68.9893 37.8708C69.1131 38.7571 68.9931 39.8069 68.6291 41.0202C68.269 42.2206 67.7977 43.165 67.2153 43.8534C66.6368 44.529 65.9644 44.9606 65.1981 45.1484C64.4447 45.3399 63.6145 45.2997 62.7078 45.0277ZM63.9606 42.7308C64.4459 42.8764 64.921 42.8936 65.3859 42.7825C65.8508 42.6714 66.2613 42.4396 66.6177 42.0872C66.9906 41.7257 67.2652 41.2513 67.4414 40.6638C67.6215 40.0636 67.6534 39.5164 67.5372 39.0221C67.4337 38.5317 67.2186 38.1122 66.8916 37.7635C66.5647 37.4149 66.1586 37.1678 65.6733 37.0222C65.1752 36.8728 64.6937 36.8536 64.2289 36.9647C63.764 37.0758 63.347 37.3057 62.9779 37.6543C62.6216 38.0068 62.3534 38.4832 62.1734 39.0834C61.9971 39.6709 61.9588 40.2162 62.0584 40.7194C62.1746 41.2136 62.3962 41.635 62.7231 41.9837C63.0501 42.3323 63.4626 42.5814 63.9606 42.7308ZM65.9721 45.8399L66.6042 43.7327L67.5812 40.6849L68.3035 37.5816L70.1023 31.5856L73.0907 32.4821L68.8264 46.6962L65.9721 45.8399ZM71.372 47.4599L74.4639 37.1537L77.4523 38.0503L74.3604 48.3565L71.372 47.4599ZM76.3891 36.1653C75.84 36.0005 75.4409 35.7068 75.1918 35.2841C74.9428 34.8613 74.8892 34.4137 75.0309 33.9412C75.1727 33.4687 75.4639 33.1245 75.9045 32.9087C76.3451 32.6928 76.8399 32.6673 77.3891 32.832C77.9383 32.9968 78.3393 33.2841 78.5921 33.6941C78.8488 34.0913 78.9063 34.5261 78.7645 34.9986C78.6151 35.4967 78.3182 35.86 77.8737 36.0886C77.4459 36.3083 76.951 36.3338 76.3891 36.1653ZM86.3156 40.5423C87.133 40.7875 87.8111 41.1719 88.35 41.6955C88.9056 42.2102 89.267 42.8615 89.4343 43.6495C89.6054 44.4247 89.5339 45.3359 89.2197 46.3831L87.4496 52.2833L84.4612 51.3868L86.0934 45.9463C86.3424 45.1162 86.3412 44.4477 86.0896 43.9407C85.8508 43.4375 85.3993 43.0863 84.7352 42.887C84.2627 42.7453 83.8042 42.7191 83.3598 42.8085C82.9319 42.8889 82.5482 43.1009 82.2085 43.4445C81.8815 43.7918 81.6223 44.2848 81.4307 44.9234L79.902 50.019L76.9136 49.1224L80.0055 38.8162L82.8598 39.6726L82.0035 42.5269L81.7257 41.5039C82.303 40.9254 82.992 40.5544 83.7927 40.3909C84.5935 40.2275 85.4344 40.2779 86.3156 40.5423ZM93.6987 58.376C92.7281 58.0848 91.8258 57.6819 90.9919 57.1672C90.1669 56.6691 89.5251 56.0938 89.0667 55.4412L90.898 53.652C91.225 54.1398 91.6898 54.5855 92.2926 54.9891C92.9044 55.4093 93.5359 55.7171 94.1872 55.9125C95.2472 56.2305 96.0843 56.2241 96.6986 55.8933C97.3257 55.5664 97.7791 54.9368 98.0588 54.0045L98.5243 52.4528L99.4917 49.9242L100.235 47.3074L100.902 45.0852L103.737 45.9358L101.162 54.5179C100.587 56.4335 99.666 57.6953 98.3978 58.3032C97.1296 58.9111 95.5633 58.9354 93.6987 58.376ZM94.5493 53.8704C93.5915 53.583 92.7843 53.1181 92.1279 52.4758C91.4881 51.8244 91.043 51.0575 90.7927 50.1751C90.559 49.2836 90.5916 48.3399 90.8904 47.3437C91.1931 46.3348 91.6854 45.529 92.3674 44.9262C93.066 44.3144 93.8597 43.9192 94.7486 43.7404C95.6502 43.5654 96.5799 43.6216 97.5377 43.909C98.4062 44.1695 99.1188 44.5782 99.6756 45.135C100.236 45.6791 100.591 46.377 100.739 47.2288C100.891 48.0679 100.794 49.0621 100.45 50.2115C100.109 51.3481 99.6417 52.2312 99.0491 52.8608C98.4604 53.4777 97.7803 53.8653 97.009 54.0236C96.2376 54.182 95.4177 54.1309 94.5493 53.8704ZM95.8788 51.5965C96.4024 51.7536 96.8992 51.7913 97.3691 51.7095C97.8429 51.615 98.2522 51.4107 98.5971 51.0965C98.9419 50.7824 99.189 50.3762 99.3384 49.8782C99.4917 49.3673 99.5089 48.8923 99.3902 48.4529C99.2752 48.0008 99.0441 47.6113 98.6967 47.2844C98.3532 46.9447 97.9196 46.6963 97.396 46.5392C96.8724 46.3821 96.3737 46.3508 95.8999 46.4453C95.4299 46.527 95.0161 46.7231 94.6585 47.0334C94.3175 47.3348 94.0704 47.7409 93.9171 48.2518C93.7677 48.7498 93.7505 49.2249 93.8654 49.677C93.9931 50.1329 94.2287 50.5307 94.5723 50.8705C94.9196 51.1974 95.3551 51.4394 95.8788 51.5965Z" fill="white" />
	</g>
	<defs>
		<clipPath id="clip0_15_843">
			<rect x="12.3562" width="117" height="43" rx="21.5" transform="rotate(16.6996 12.3562 0)" fill="white" />
		</clipPath>
	</defs>
</svg>
